<svg height="512" viewBox="0 0 512 512" width="512" xmlns="http://www.w3.org/2000/svg"><path d="m488.419 255.966c0 128.946-104.617 233.547-233.399 233.547-128.938 0-233.398-104.602-233.398-233.547 0-128.932 104.46-233.541 233.398-233.541 128.782.001 233.399 104.61 233.399 233.541zm-215.48 101.984c-20.836-4.083-33.214-16.176-64.835-63.07-10.486-15.736-10.486-15.736-20.688-16.477-15.003-1.023-13.836-3.642-13.403 29.438.584 37.575.15 36.708 21.854 40.351 5.684.866 6.118 1.322 6.118 4.665 0 3.786 0 3.786-38.173 4.085-35.84.284-38.167.142-38.898-2.05-1.452-4.211.732-6.26 8.601-7.711 8.885-1.608 13.544-5.25 14.711-11.368.583-2.333.732-33.805.441-69.93-.441-75.912.434-71.394-13.552-74.454-8.743-1.892-11.51-3.934-10.344-7.427.875-2.333 2.768-2.483 42.541-3.208 59.151-1.167 70.221.725 85.957 14.711 16.454 14.719 18.788 37.156 5.684 55.951-5.826 8.452-17.485 17.472-26.513 20.83-4.226 1.607-7.726 3.357-7.726 3.926 0 1.765 13.403 20.845 21.712 31.046 22.146 26.946 34.082 37.447 46.475 40.647 7.727 2.035 9.902 4.227 7.727 8.011-2.334 3.927-14.001 4.81-27.689 2.034zm-55.8-96.592c29.139-11.944 31.322-52.009 3.643-63.811-7.136-3.059-9.034-3.201-26.955-3.201-19.37 0-19.37 0-19.662 33.649-.292 18.503-.15 34.531.292 35.405 1.308 3.053 34.088 1.459 42.682-2.042zm101.557-41.516c-22.594-4.225-30.021-18.069-28.854-53.617.583-19.67 2.19-25.062 9.759-33.215 13.403-14.427 46.611-13.118 58.861 2.327 5.25 6.559 4.809 8.601-2.476 10.785-5.677 1.892-5.677 1.892-10.928-3.351-12.392-11.952-33.805-7.576-37.589 7.867-1.892 6.844-1.75 35.84.143 42.392 5.107 18.503 35.839 18.503 41.089 0 3.202-11.802 2.476-12.67-11.652-13.402-6.857-.292-6.857-.292-6.857-5.976 0-5.535 0-5.535 16.318-5.969 21.13-.441 20.844-.733 19.819 14.711-1.309 19.378-6.559 28.704-19.235 34.239-8.309 3.493-19.662 4.81-28.398 3.209z"/><path d="m272.939 357.95c-20.836-4.083-33.214-16.176-64.835-63.07-10.486-15.736-10.486-15.736-20.688-16.477-15.003-1.023-13.836-3.642-13.403 29.438.584 37.575.15 36.708 21.854 40.351 5.684.866 6.118 1.322 6.118 4.665 0 3.786 0 3.786-38.173 4.085-35.84.284-38.167.142-38.898-2.05-1.452-4.225.732-6.26 8.601-7.711 8.885-1.608 13.544-5.25 14.711-11.368.583-2.333.732-33.805.441-69.93-.441-75.912.434-71.394-13.552-74.454-8.743-1.892-11.51-3.934-10.344-7.427.875-2.333 2.768-2.483 42.541-3.208 59.151-1.167 70.221.725 85.957 14.711 16.454 14.719 18.788 37.156 5.684 55.951-5.826 8.452-17.485 17.472-26.513 20.83-4.226 1.607-7.726 3.357-7.726 3.926 0 1.765 13.403 20.845 21.712 31.046 22.146 26.946 34.082 37.447 46.475 40.647 7.727 2.035 9.902 4.227 7.727 8.011-2.334 3.927-14.001 4.81-27.689 2.034zm-55.8-96.592c29.139-11.944 31.322-52.009 3.643-63.811-7.136-3.059-9.034-3.201-26.955-3.201-19.37 0-19.37 0-19.662 33.649-.292 18.503-.15 34.531.292 35.405 1.308 3.053 34.088 1.459 42.682-2.042zm101.557-41.516c-22.594-4.225-30.021-18.069-28.854-53.617.583-19.67 2.19-25.062 9.759-33.215 13.403-14.427 46.611-13.118 58.861 2.327 5.25 6.559 4.809 8.601-2.476 10.785-5.677 1.892-5.677 1.892-10.928-3.351-12.392-11.952-33.805-7.576-37.589 7.867-1.892 6.844-1.75 35.84.143 42.392 5.107 18.503 35.839 18.503 41.089 0 3.202-11.802 2.476-12.67-11.652-13.402-6.857-.292-6.857-.292-6.857-5.976 0-5.535 0-5.535 16.318-5.969 21.13-.441 20.844-.733 19.819 14.711-1.309 19.378-6.559 28.704-19.235 34.239-8.309 3.493-19.662 4.81-28.398 3.209z" fill="#fff"/></svg>