<?xml version="1.0" standalone="no"?>
<!DOCTYPE svg PUBLIC "-//W3C//DTD SVG 20010904//EN"
 "http://www.w3.org/TR/2001/REC-SVG-20010904/DTD/svg10.dtd">
<svg version="1.0" xmlns="http://www.w3.org/2000/svg"
 width="493.000000pt" height="493.000000pt" viewBox="0 0 493.000000 493.000000"
 preserveAspectRatio="xMidYMid meet">
<metadata>
Created by potrace 1.14, written by Peter Selinger 2001-2017
</metadata>
<g transform="translate(0.000000,493.000000) scale(0.100000,-0.100000)"
fill="#000000" stroke="none">
<path d="M1671 4593 c-10 -21 -30 -67 -44 -103 -95 -244 -102 -293 -61 -460
29 -121 31 -144 22 -250 -3 -36 -1 -87 4 -115 14 -71 17 -125 7 -125 -5 0 -9
7 -9 15 0 11 -8 15 -27 13 -23 -3 -31 5 -59 53 -20 37 -29 61 -23 70 15 24
-13 79 -40 79 -6 0 -8 12 -4 31 5 25 3 31 -8 27 -18 -7 -17 -66 3 -104 29 -58
101 -189 111 -202 5 -6 11 -76 13 -155 3 -78 7 -178 10 -222 4 -44 8 -102 10
-130 4 -71 31 -183 65 -272 11 -29 56 -37 175 -31 l94 5 -7 -71 c-5 -71 1
-100 52 -228 5 -13 2 -18 -11 -18 -47 -1 -72 -47 -82 -150 l-7 -65 -79 -23
c-75 -21 -116 -44 -116 -64 0 -5 -9 -21 -20 -36 -10 -15 -44 -89 -74 -165 -31
-76 -61 -147 -67 -158 -6 -11 -17 -46 -25 -77 -8 -31 -24 -71 -35 -89 -17 -27
-19 -42 -13 -71 4 -20 6 -41 4 -47 -1 -5 -8 -39 -15 -75 -7 -36 -13 -69 -15
-75 -5 -19 0 -36 9 -31 5 3 12 33 16 66 4 32 13 64 21 71 8 6 14 23 14 36 0
15 10 33 25 45 18 14 25 29 25 56 0 21 27 104 65 198 36 90 72 190 81 222 l16
59 52 12 c28 6 61 14 74 17 22 6 22 5 22 -103 0 -61 3 -138 6 -172 l7 -61 -32
0 c-55 0 -122 -22 -136 -44 -21 -33 -25 -101 -27 -391 -1 -175 3 -279 10 -296
6 -15 8 -36 5 -48 -4 -15 -1 -21 11 -21 15 0 20 11 17 36 -1 7 4 25 10 40 23
61 22 474 -2 574 -3 10 9 17 44 24 61 12 117 -10 117 -47 0 -72 50 -238 117
-386 31 -69 119 -156 207 -205 62 -35 78 -39 156 -43 69 -3 98 0 137 15 55 21
162 94 205 139 62 66 161 299 174 408 8 69 20 79 82 70 74 -10 78 -14 64 -77
-7 -29 -14 -146 -16 -260 -2 -114 -7 -212 -11 -217 -3 -6 1 -11 9 -11 12 0 16
-12 18 -52 0 -29 2 -66 4 -83 6 -68 6 -286 -1 -325 -13 -74 -31 -108 -65 -115
-32 -7 -39 -22 -15 -32 9 -3 24 2 34 11 22 20 65 21 81 1 7 -8 17 -12 23 -8 6
4 3 9 -9 13 -18 7 -19 21 -24 276 -4 232 -3 271 10 285 13 13 15 51 13 250 -2
254 -10 394 -25 422 -5 10 -35 24 -69 34 -45 12 -61 21 -64 37 -2 12 -6 101
-8 199 -3 124 -1 177 7 176 43 -2 131 -28 137 -40 4 -8 31 -72 59 -144 29 -71
65 -155 81 -186 15 -30 31 -72 35 -93 4 -25 13 -40 25 -43 10 -3 23 -21 30
-42 6 -20 18 -40 25 -44 8 -4 14 -17 14 -28 0 -11 7 -22 15 -25 8 -4 15 -17
15 -29 0 -13 5 -27 10 -30 6 -3 10 -15 10 -26 0 -11 9 -33 20 -49 11 -17 28
-43 39 -58 10 -15 30 -50 44 -77 37 -73 48 -83 77 -76 25 7 25 7 -21 56 -68
76 -105 125 -126 175 -11 25 -39 88 -62 140 -22 52 -41 106 -41 120 0 14 -11
48 -25 75 -14 28 -28 67 -31 87 -4 21 -13 43 -20 49 -8 6 -14 22 -14 35 0 12
-5 26 -10 29 -6 4 -31 50 -56 103 -25 53 -58 114 -74 134 -17 20 -30 41 -30
46 0 11 -61 42 -83 42 -7 0 -28 5 -44 11 -30 10 -31 12 -35 90 -5 90 -27 132
-71 137 -28 3 -33 11 -18 28 16 17 32 133 25 184 -8 58 -16 54 106 39 104 -12
140 -3 140 36 0 14 7 40 16 58 37 70 55 209 57 435 0 89 3 165 6 170 3 4 24
16 46 26 106 52 281 192 273 218 -9 25 -28 19 -28 -8 0 -20 -3 -25 -11 -17
-14 14 -59 -6 -59 -28 0 -17 -49 -76 -78 -93 -11 -6 -38 -23 -60 -38 -70 -47
-102 -31 -68 32 13 23 12 25 -26 42 -32 14 -39 22 -33 35 4 10 9 63 12 118 3
68 12 122 28 170 28 84 55 235 55 308 -1 67 -14 123 -44 189 -14 29 -32 76
-40 103 -42 144 -62 199 -75 203 -10 3 -12 -4 -7 -34 32 -211 32 -205 7 -225
-25 -21 -59 -24 -107 -10 -17 5 -37 5 -44 1 -16 -10 21 -30 103 -56 31 -10 57
-24 57 -31 0 -7 7 -13 15 -13 17 0 20 -25 5 -35 -16 -10 -12 -22 10 -28 23 -6
27 -37 5 -37 -18 0 -19 -12 -3 -28 9 -9 7 -13 -7 -18 -12 -5 -22 -1 -31 10
-12 16 -12 16 -16 -1 -2 -10 7 -33 20 -50 30 -40 23 -67 -14 -60 -23 4 -25 2
-20 -19 5 -17 2 -24 -8 -24 -25 0 -27 -18 -5 -38 28 -27 21 -56 -13 -60 -27
-3 -27 -4 -12 -27 15 -23 15 -27 -10 -70 -35 -60 -109 -115 -152 -115 -38 0
-38 0 -23 -33 8 -18 8 -30 0 -45 -12 -22 -36 -31 -166 -57 -57 -11 -90 -24
-116 -45 -36 -28 -60 -30 -37 -3 9 11 7 12 -15 4 -25 -10 -26 -9 -37 47 -6 31
-13 68 -16 82 l-6 25 -19 -25 c-10 -14 -19 -19 -19 -12 0 6 -7 12 -15 12 -11
0 -15 -13 -15 -54 0 -37 -5 -60 -16 -71 -14 -13 -19 -14 -25 -3 -7 11 -9 11
-9 -1 0 -10 -6 -10 -26 4 -15 9 -62 23 -106 31 -43 7 -88 18 -98 24 -24 13
-27 62 -5 80 8 7 15 19 15 28 0 11 -8 13 -36 9 -47 -8 -80 10 -133 69 -50 58
-60 88 -36 114 17 19 12 25 -17 22 -3 -1 -12 5 -19 14 -9 11 -9 18 -1 26 19
19 14 26 -15 30 -36 4 -44 43 -14 65 25 17 19 33 -13 33 -46 0 -62 48 -24 74
19 14 19 16 5 22 -9 3 -17 16 -17 28 -1 19 -2 19 -11 4 -12 -22 -35 -23 -43
-2 -11 28 -6 42 17 48 22 6 22 7 -5 22 -51 27 -34 70 33 82 24 5 60 19 79 31
l35 23 -49 -5 c-56 -6 -90 4 -99 27 -6 16 13 108 38 187 8 26 15 52 15 58 0
23 -20 9 -39 -26z m-7 -875 c12 -30 62 -112 112 -184 49 -71 97 -146 107 -167
15 -33 15 -38 2 -44 -11 -4 -15 -17 -13 -44 1 -26 -4 -45 -14 -56 -18 -18 -12
-45 22 -93 17 -24 19 -42 16 -156 l-2 -129 -59 -7 c-33 -5 -84 -7 -115 -5
l-55 2 -1 105 c-1 58 -6 181 -11 274 -7 104 -7 182 -1 203 8 29 13 33 46 34
36 1 36 2 7 8 -23 5 -31 12 -33 34 -3 23 -7 27 -24 21 -19 -6 -20 -3 -15 26 4
17 3 39 -2 48 -11 21 -23 181 -15 194 9 15 24 -5 48 -64z m1389 -90 c3 -12 3
-26 -1 -32 -3 -6 -7 -34 -8 -63 -2 -63 -10 -76 -41 -70 -17 3 -21 1 -14 -6 6
-6 11 -24 11 -40 0 -16 7 -36 17 -45 14 -15 15 -39 8 -237 -4 -121 -8 -251 -9
-290 l-1 -70 -50 -3 c-41 -3 -120 11 -147 25 -4 2 3 25 14 51 23 51 26 98 16
307 -3 66 -1 128 4 137 13 27 -1 68 -24 68 -19 0 -18 3 8 38 16 20 55 69 87
107 33 39 71 87 85 108 28 43 37 46 45 15z m-843 -238 c0 -5 -5 -10 -11 -10
-5 0 -7 5 -4 10 3 6 8 10 11 10 2 0 4 -4 4 -10z m547 -1207 c-17 -17 -18 -16
-15 15 2 28 4 30 17 17 14 -13 13 -17 -2 -32z m-397 12 c0 -27 -1 -28 -23 -19
-18 7 -10 44 9 44 8 0 14 -10 14 -25z m-50 -21 c0 -8 -4 -12 -10 -9 -5 3 -10
10 -10 16 0 5 5 9 10 9 6 0 10 -7 10 -16z m205 -194 c3 -5 -1 -10 -10 -10 -9
0 -13 5 -10 10 3 6 8 10 10 10 2 0 7 -4 10 -10z"/>
<path d="M2185 3810 c-4 -6 -11 -24 -15 -41 -8 -25 -7 -29 4 -19 8 6 17 22 21
37 7 27 1 41 -10 23z"/>
<path d="M2570 3783 c0 -15 5 -35 10 -43 7 -11 10 -6 10 22 0 20 -4 40 -10 43
-6 4 -10 -6 -10 -22z"/>
<path d="M2130 3622 c0 -5 9 -17 20 -27 19 -17 19 -17 7 9 -12 25 -27 35 -27
18z"/>
<path d="M2563 3618 c-23 -30 -24 -41 -2 -21 12 12 20 25 17 28 -3 3 -10 0
-15 -7z"/>
<path d="M1386 1235 c-3 -8 -3 -21 0 -29 8 -22 -30 -146 -63 -207 -23 -42 -35
-55 -56 -57 -15 -2 -25 -8 -22 -13 9 -14 41 -11 56 7 7 9 22 14 35 11 20 -3
24 2 33 42 12 49 41 228 41 249 0 17 -17 15 -24 -3z"/>
<path d="M1645 877 c-8 -32 0 -46 17 -29 8 8 8 18 1 34 l-11 23 -7 -28z"/>
<path d="M1643 804 c-3 -8 -1 -20 6 -27 8 -8 11 -4 11 16 0 30 -7 35 -17 11z"/>
<path d="M1654 737 c-3 -8 0 -25 6 -37 9 -17 17 -119 20 -257 0 -6 8 -9 19 -6
12 3 26 -5 40 -23 11 -14 21 -23 21 -19 0 5 -7 16 -15 25 -9 10 -20 41 -25 71
-13 80 -51 253 -55 258 -3 2 -7 -3 -11 -12z"/>
</g>
</svg>
